<?xml version="1.0" encoding="UTF-8" standalone="no"?>
<svg
   xmlns:dc="http://purl.org/dc/elements/1.1/"
   xmlns:cc="http://creativecommons.org/ns#"
   xmlns:rdf="http://www.w3.org/1999/02/22-rdf-syntax-ns#"
   xmlns:svg="http://www.w3.org/2000/svg"
   xmlns="http://www.w3.org/2000/svg"
   xmlns:sodipodi="http://sodipodi.sourceforge.net/DTD/sodipodi-0.dtd"
   xmlns:inkscape="http://www.inkscape.org/namespaces/inkscape"
   sodipodi:docname="katzenpost_logo.svg"
   inkscape:version="1.0 (4035a4f, 2020-05-01)"
   id="svg8"
   version="1.1"
   viewBox="0 0 135.46666 135.46667"
   height="512"
   width="512">
  <defs
     id="defs2" />
  <sodipodi:namedview
     inkscape:window-maximized="1"
     inkscape:window-y="41"
     inkscape:window-x="0"
     inkscape:window-height="1157"
     inkscape:window-width="1916"
     units="px"
     showgrid="false"
     inkscape:document-rotation="0"
     inkscape:current-layer="layer1"
     inkscape:document-units="mm"
     inkscape:cy="255.69674"
     inkscape:cx="306.86882"
     inkscape:zoom="0.7"
     inkscape:pageshadow="2"
     inkscape:pageopacity="0.0"
     borderopacity="1.0"
     bordercolor="#666666"
     pagecolor="#ffffff"
     id="base" />
  <metadata
     id="metadata5">
    <rdf:RDF>
      <cc:Work
         rdf:about="">
        <dc:format>image/svg+xml</dc:format>
        <dc:type
           rdf:resource="http://purl.org/dc/dcmitype/StillImage" />
        <dc:title></dc:title>
      </cc:Work>
    </rdf:RDF>
  </metadata>
  <g
     id="layer1"
     inkscape:groupmode="layer"
     inkscape:label="Layer 1">
    <path
       sodipodi:nodetypes="ccccccccccccsccssccsccccccccccccccccccccccccsccccccccccccccccccccccccccccccccccsccsccsssscccscccccccccc"
       id="path152"
       d="M 56.845156,127.56854 C 35.670685,121.71829 27.214414,108.79741 17.328612,94.646258 L 11.02307,97.256426 8.9543925,91.548997 15.549835,88.680179 C 14.38369,85.913835 13.607703,83.091199 12.859993,80.193231 L 6.0040304,81.281737 5.258423,76.547301 12.564164,75.29584 C 11.244903,63.940949 10.380121,52.163502 12.715433,40.679713 14.540321,31.805491 16.063992,22.414762 18.467812,13.993327 20.733618,6.1274543 20.02621,6.4757033 29.474443,8.5748833 c 7.824939,1.7385107 16.99964,6.6348637 23.42992,12.5040597 1.859093,1.696864 2.138679,0.478096 15.080277,0.526643 11.833043,0.04445 13.0139,1.165523 14.04382,0.02743 2.400929,-2.653155 10.667368,-8.117544 15.872618,-10.492285 3.264232,-1.4892087 12.122392,-3.6299707 15.061242,-3.6398547 l 2.40232,-0.0081 c 3.75801,9.7887107 4.0505,11.8639427 6.75923,25.7687327 1.3166,7.589511 2.42678,18.213359 2.16947,29.957673 -0.1418,6.472218 -0.58502,11.29113 -0.58502,11.29113 l 6.96846,0.849952 -0.6152,5.523115 -7.11576,-0.920062 c -0.72797,3.084533 -1.61485,6.408392 -2.73032,9.711163 l 6.13646,2.294555 -1.93639,5.027539 c 0,0 -5.69215,-1.926837 -6.11498,-2.276077 -3.81026,8.204043 -11.60991,19.166833 -21.311425,25.654693 -11.223315,7.08816 -26.921528,9.90109 -40.144075,7.19332 z m 45.091764,-22.98201 c 2.62848,-3.46448 6.18859,-9.071381 7.88892,-12.975409 l -17.799851,-7.785195 2.282637,-4.551193 17.557184,7.153158 c 0.98883,-1.872082 1.80761,-4.168859 2.31706,-7.238165 L 96.217796,76.355913 96.77866,70.9118 l 19.95623,2.397456 c 0.84308,-13.841919 0.357,-28.465071 -1.57737,-38.57795 -1.34617,-7.113523 -1.60625,-12.668361 -4.29395,-18.944669 -7.20739,0.685456 -17.258869,5.010004 -26.143241,14.77551 L 79.170905,29.8153 C 72.107201,28.864685 63.267265,28.862889 56.224769,29.8107 l -5.515048,0.74224 C 46.746619,25.693508 40.081016,19.642822 26.245851,16.539433 c -4.039946,12.700456 -6.842689,28.563292 -6.9729,40.509593 0.159988,8.859852 0.885192,17.00964 0.885192,17.00964 l 18.450013,-3.260977 0.41958,4.796463 -17.885509,3.766138 c 0.211526,1.889275 0.792459,3.863686 1.926333,5.965531 l 16.792265,-6.278388 2.482242,5.235097 -16.41326,6.731963 c 6.379818,10.042837 5.964375,15.840527 25.247427,26.115697 7.032254,2.47897 13.893009,4.41109 19.099493,4.30803 13.360683,-1.42686 23.664619,-7.12242 31.660193,-16.85169 z m -34.534873,-0.84307 c 10.39087,-1.7792 21.057333,-6.363768 25.68871,-13.542135 l 7.759843,3.528269 C 91.964999,104.67829 81.257717,109.25362 70.743023,111.31148 Z M 54.130129,82.077969 57.964054,74.436708 c 5.267927,2.289104 10.637853,3.530663 15.379632,2.368496 2.472961,-0.621175 3.988912,-2.127844 4.610311,-1.913101 0.621418,0.214737 2.893799,5.302867 3.789515,7.213222 0,0 -3.28327,2.166789 -8.320714,3.392235 -7.059655,0.824273 -11.766176,0.344699 -19.292669,-3.419591 z M 34.285759,60.523481 c -0.485655,-6.11137 4.642217,-8.887969 9.047558,-9.590208 3.415729,-0.512231 7.538799,0.474164 9.630415,2.303894 2.990371,2.615986 4.575633,8.369615 2.598487,10.755266 -2.358931,2.970074 -3.354046,3.175929 -6.586088,4.207077 -7.681825,1.755338 -14.62517,-0.7324 -14.690372,-7.676029 z m 15.762684,3.25026 c 2.677011,-1.894088 1.614919,-4.188895 -0.262681,-4.553356 -2.406472,-0.978989 -5.295323,2.014304 -4.687461,4.010225 0.502063,1.648527 1.789332,2.779526 4.950142,0.54309 z m 35.936156,4.330539 c -3.672452,-1.136481 -6.558656,-4.699665 -6.558656,-8.097037 1.556648,-10.222565 11.725727,-10.299792 17.188045,-7.652884 3.909152,2.021506 5.923042,8.648983 4.091762,13.465593 -1.061369,2.791662 -9.067313,4.033977 -14.721134,2.284328 z m 9.052721,-2.796792 c 0.871139,-0.251104 1.835731,-1.122347 2.143511,-1.936032 1.138126,-3.008788 -1.976232,-4.724974 -5.116919,-2.082245 -3.046669,4.112833 -0.67381,5.069097 2.973408,4.018269 z M 39.937582,38.740086 43.999908,33.121057 63.835905,47.185151 59.318803,53.108469 Z M 72.580025,46.374093 90.058898,34.547903 93.8132,39.952802 75.901273,51.86498 Z"
       style="fill:#ffffff;stroke:none;stroke-width:0.684266" />
  </g>
</svg>
